<svg width="41" height="41" viewBox="0 0 41 41" fill="none" xmlns="http://www.w3.org/2000/svg">
<path d="M36.6181 12.8813L24.2856 3.29789C23.2033 2.45671 21.8712 2 20.5 2C19.1288 2 17.7967 2.45671 16.7144 3.29789L4.37956 12.8813C3.63828 13.4572 3.03853 14.1948 2.62612 15.0377C2.21372 15.8805 1.99956 16.8064 2 17.7446V34.3793C2 35.6048 2.48728 36.7801 3.35463 37.6466C4.22199 38.5132 5.39837 39 6.625 39H34.375C35.6016 39 36.778 38.5132 37.6454 37.6466C38.5127 36.7801 39 35.6048 39 34.3793V17.7446C39 15.8432 38.1213 14.048 36.6181 12.8813Z" fill="#7065F0" stroke="#7065F0" stroke-width="3" stroke-linecap="round" stroke-linejoin="round"/>
<path d="M30 28C24.7512 30.6667 16.244 30.6667 11 28" stroke="#F9FAFB" stroke-width="3" stroke-linecap="round" stroke-linejoin="round"/>
</svg>
